<svg width="36" height="36" viewBox="0 0 36 36" fill="none" xmlns="http://www.w3.org/2000/svg">
<rect x="0.5" y="0.5" width="35" height="35" rx="17.5" fill="#4A6948" stroke="#F9F8F0"/>
<path d="M26.0771 29.792C25.7571 30.4747 25.2451 31.0933 24.5411 31.648C23.8585 32.224 23.1225 32.512 22.3331 32.512C21.5438 32.512 20.7651 32.288 19.9971 31.84C19.2505 31.4133 18.6425 30.976 18.1731 30.528C17.7038 30.08 17.0318 29.3867 16.1571 28.448C15.3038 27.5093 14.7171 26.88 14.3971 26.56C13.2665 27.776 11.8905 28.384 10.2691 28.384C9.20246 28.384 8.32779 28.1173 7.64512 27.584C6.96246 27.0507 6.62112 26.3467 6.62112 25.472C6.62112 24.576 6.98379 23.8187 7.70912 23.2C8.45579 22.56 9.44779 22.24 10.6851 22.24C11.3891 22.24 12.0931 22.3573 12.7971 22.592C13.0105 21.5467 13.1811 20.064 13.3091 18.144C12.0078 17.9093 10.9411 17.3653 10.1091 16.512C9.29846 15.6373 8.89312 14.432 8.89312 12.896C8.89312 12.2987 8.98912 11.5413 9.18112 10.624C9.41579 10.5813 9.72512 10.56 10.1091 10.56C10.4931 10.56 10.8878 10.7093 11.2931 11.008C11.0158 11.52 10.8771 12.2027 10.8771 13.056C10.8771 14.784 11.7198 15.8507 13.4051 16.256C13.4905 13.9307 13.6185 12.2987 13.7891 11.36C13.9598 10.4 14.2585 9.49333 14.6851 8.64C15.1118 7.76533 15.8158 6.98667 16.7971 6.304C17.7998 5.62133 19.0691 5.28 20.6051 5.28C22.1411 5.28 23.3251 5.73867 24.1571 6.656C25.0105 7.552 25.4371 8.61867 25.4371 9.856C25.4371 11.584 24.6371 13.3333 23.0371 15.104C21.4585 16.8533 19.4958 17.92 17.1491 18.304C16.4878 21.184 16.0078 23.136 15.7091 24.16C16.0505 24.416 16.6691 24.896 17.5651 25.6C18.4825 26.304 19.1758 26.8267 19.6451 27.168C20.1358 27.488 20.7865 27.808 21.5971 28.128C22.4291 28.4693 23.2291 28.64 23.9971 28.64L25.3411 28.544C25.7038 29.056 25.9491 29.472 26.0771 29.792ZM23.2931 10.144C23.2931 9.504 23.1225 8.98133 22.7811 8.576C22.4611 8.17067 22.0238 7.968 21.4691 7.968C20.0398 7.968 18.9945 9.52533 18.3331 12.64C17.9705 14.3467 17.7145 15.584 17.5651 16.352C19.1438 16.0747 20.4878 15.296 21.5971 14.016C22.7278 12.7147 23.2931 11.424 23.2931 10.144ZM9.98112 25.984C10.7278 25.984 11.3891 25.5787 11.9651 24.768C11.3465 24.384 10.7278 24.192 10.1091 24.192C9.19179 24.192 8.73312 24.4907 8.73312 25.088C8.73312 25.3867 8.86112 25.6107 9.11712 25.76C9.37312 25.9093 9.66112 25.984 9.98112 25.984Z" fill="#F9F8F0"/>
</svg>
