<svg width="210" height="228" viewBox="0 0 210 228" fill="none" xmlns="http://www.w3.org/2000/svg">
<path d="M107.25 85.4643L83.25 107.601L95.75 114.722L119.5 92.4643L107.25 85.4643Z" fill="#48502A"/>
<path d="M83.25 71.75L59 93.788L71.75 101.051L95.75 78.8929L83.25 71.75Z" fill="#48502A"/>
<path d="M59 57.8929L36.5 80.9715L48.5 87.807L71.75 65.1786L59 57.8929Z" fill="#48502A"/>
<path d="M36.5 45.0357L12.5 67.3006L25.5 74.7057L48.5 51.8929L36.5 45.0357Z" fill="#48502A"/>
<path d="M119.5 128.25L107.625 121.486L107.25 128.25C107.25 142.25 115.417 138.75 119.5 135.25V128.25Z" fill="#48502A"/>
<path d="M95.75 114.722L83.25 107.601V114.722C83.5012 118.985 84.4491 121.573 85.75 123.012C88.5924 126.158 93.1203 123.82 95.75 121.486V114.722Z" fill="#48502A"/>
<path d="M71.75 101.051L59 93.788V101.051C59.4271 103.964 60.0976 106.091 60.9211 107.601C63.9537 113.162 69.063 110.354 71.75 107.601V101.051Z" fill="#48502A"/>
<path d="M48.5 87.807L36.5 80.9715V87.807C36.5 100.653 44.5 97.1466 48.5 93.788V87.807Z" fill="#48502A"/>
<path d="M25.5 74.7057L12.5 67.3006V74.7057C12.5 85.8703 21.1667 83.5348 25.5 80.9715V74.7057Z" fill="#48502A"/>
<path d="M197.5 87.807L150.75 114.75L197.5 125.941V125.605V87.807Z" fill="#577185"/>
<path d="M150.75 114.75V124.25V128.25L197.5 129.409V125.941L150.75 114.75Z" fill="#BBCDE5"/>
<path d="M197.5 129.409L150.75 128.25V131.875L197.5 132.454V129.409Z" fill="#577185"/>
<path d="M195.5 136.634L197.5 135.5V132.454L150.75 131.875V135.5L195.5 136.634Z" fill="#BBCDE5"/>
<path d="M150.75 162L190.443 139.5L195.5 136.634L150.75 135.5V139.5V162Z" fill="#577185"/>
<path d="M119.5 128.25V135.25C115.417 138.75 107.25 142.25 107.25 128.25C106.256 128.739 105.341 129.122 104.5 129.409V144.75L133.5 137.25V122.878L119.5 128.25Z" fill="#577185"/>
<path d="M119.5 128.25L133.5 122.878V121.44L121.92 125.605L119.5 128.25Z" fill="#1E1E1E"/>
<path d="M133.5 122.878L137.248 121.44L137.258 120L133.5 121.44V122.878Z" fill="#1E1E1E"/>
<path d="M137.248 121.44L141 120V118.25L137.258 120L137.248 121.44Z" fill="#1E1E1E"/>
<path d="M133.5 114.722V112.948L121.92 125.605L133.5 121.44V114.722Z" fill="#BBCDE5"/>
<path d="M104.5 151.25L133.5 143.5V137.25L104.5 144.75V151.25Z" fill="#BBCDE5"/>
<path d="M104.5 155.5L133.5 148.5V143.5L104.5 151.25V155.5Z" fill="#577185"/>
<path d="M104.5 167.75L133.5 184.5V159.75L104.5 167.75Z" fill="#577185"/>
<path d="M95.75 125.605C95.4882 124.219 95.5427 122.732 95.75 121.486C93.1203 123.82 88.5924 126.158 85.75 123.012L67.5646 126.5L95.75 142.5V125.605Z" fill="#577185"/>
<path d="M83.25 114.722C80.1667 117.799 73.55 120.682 71.75 107.601C69.063 110.354 63.9537 113.162 60.9211 107.601L41.75 111.846L67.5646 126.5L85.75 123.012C84.4491 121.573 83.5012 118.985 83.25 114.722Z" fill="#BBCDE5"/>
<path d="M60.9211 107.601C60.0976 106.091 59.4271 103.964 59 101.051C57.1316 102.835 54.2659 104.585 52 103.726L33.75 107.305L41.75 111.846L60.9211 107.601Z" fill="#577185"/>
<path d="M29.25 104.75L33.75 107.305L52 103.726C50.3248 103.091 48.9776 101.03 48.6036 96.5L29.25 101.051V104.75Z" fill="#BBCDE5"/>
<path d="M48.5 93.788C44.5 97.1466 36.5 100.653 36.5 87.807C34.4731 88.6857 31.5858 89.4297 29.25 88.9519V101.051L48.6036 96.5C48.5358 95.6791 48.5 94.7772 48.5 93.788Z" fill="#577185"/>
<path d="M146.5 74.75V95.75L187.5 72.8763L88.5 13.75L66.25 26.7033L146.5 74.75Z" fill="#FEFAE0"/>
<path d="M204.75 69.25L88.5 1L54.75 19.8181L59.5932 22.7178L88.5 6.25L194 69.25L187.5 72.8763L146.5 95.75V103.5L204.75 69.25Z" fill="#FEFAE0"/>
<path d="M48.5 22.7178L141 78.8929L146.5 74.75L66.25 26.7033L59.5932 22.7178L54.75 19.8181L30 5L25.5 8.75L48.5 22.7178Z" fill="#FEFAE0"/>
<path d="M25.5 38.75L36.5 45.0357L48.5 51.8929L59 57.8929L71.75 65.1786L83.25 71.75L95.75 78.8929L107.25 85.4643L119.5 92.4643L130.25 98.6071L141 104.75V78.8929L48.5 22.7178L25.5 8.75V38.75Z" fill="#F9E7B3"/>
<path d="M95.75 125.605V142.5L67.5646 126.5L41.75 111.846L33.75 107.305L29.25 104.75V101.051V88.9519C27.5273 88.5994 26.1046 87.5823 25.5486 85.4643L25.5 128.25L40.25 121.486L86.75 147.75V164.25L141 197.5V120L137.248 121.44L136.75 189.5L100.75 168.75V130.111C97.5891 130.076 96.2007 127.991 95.75 125.605Z" fill="#F9E7B3"/>
<path d="M104.5 167.75L133.5 159.75V148.5L104.5 155.5V167.75Z" fill="#BBCDE5"/>
<path d="M194 69.25L88.5 6.25V13.75L187.5 72.8763L194 69.25Z" fill="#F9E7B3"/>
<path d="M88.5 6.25L59.5932 22.7178L66.25 26.7033L88.5 13.75V6.25Z" fill="#D9D9D9"/>
<path fill-rule="evenodd" clip-rule="evenodd" d="M141 78.8929V104.75V105.75V118.25V120V197.5L204.75 159.25V69.25L146.5 103.5V95.75V74.75L141 78.8929ZM150.75 114.75L197.5 87.807V125.605V125.941V129.409V132.454V135.5L195.5 136.634L190.443 139.5L150.75 162V139.5V135.5V131.875V128.25V124.25V114.75Z" fill="#D9D9D9"/>
<path d="M107.625 121.486L119.5 128.25L121.92 125.605L133.5 112.948L137.34 108.75L141 104.75L130.25 98.6071L107.625 121.486Z" fill="#48502A"/>
<path d="M107.625 121.486L95.75 114.722V121.486C95.5427 122.732 95.4882 124.219 95.75 125.605C96.2007 127.991 97.5891 130.076 100.75 130.111C101.796 130.122 103.036 129.91 104.5 129.409C105.341 129.122 106.256 128.739 107.25 128.25L107.625 121.486Z" fill="#E64A19"/>
<path d="M119.5 92.4643L95.75 114.722L107.625 121.486L130.25 98.6071L119.5 92.4643Z" fill="#E64A19"/>
<path d="M95.75 78.8929L71.75 101.051L83.25 107.601L107.25 85.4643L95.75 78.8929Z" fill="#E64A19"/>
<path d="M83.25 107.601L71.75 101.051V107.601C73.55 120.682 80.1667 117.799 83.25 114.722V107.601Z" fill="#E64A19"/>
<path d="M71.75 65.1786L48.5 87.807L59 93.788L83.25 71.75L71.75 65.1786Z" fill="#E64A19"/>
<path d="M59 93.788L48.5 87.807V93.788C48.5 94.7772 48.5358 95.6791 48.6036 96.5C48.9776 101.03 50.3248 103.091 52 103.726C54.2659 104.585 57.1316 102.835 59 101.051V93.788Z" fill="#E64A19"/>
<path d="M48.5 51.8929L25.5 74.7057L36.5 80.9715L59 57.8929L48.5 51.8929Z" fill="#E64A19"/>
<path d="M36.5 80.9715L25.5 74.7057V80.9715C25.2003 82.8401 25.2468 84.3144 25.5486 85.4643C26.1046 87.5823 27.5273 88.5994 29.25 88.9519C31.5858 89.4297 34.4731 88.6857 36.5 87.807V80.9715Z" fill="#E64A19"/>
<path d="M25.5 38.75L1 60.75L12.5 67.3006L36.5 45.0357L25.5 38.75Z" fill="#E64A19"/>
<path d="M12.5 67.3006L1 60.75V67.3006C1 79.6268 8.66667 77.3733 12.5 74.7057V67.3006Z" fill="#E64A19"/>
<path d="M137.34 108.75L133.5 112.948V114.722V121.44L137.258 120L137.34 108.75Z" fill="#1E1E1E"/>
<path d="M133.5 184.5L104.5 167.75V155.5V151.25V144.75V129.409C103.036 129.91 101.796 130.122 100.75 130.111V168.75L136.75 189.5L137.248 121.44L133.5 122.878V137.25V143.5V148.5V159.75V184.5Z" fill="#1E1E1E"/>
<path d="M71.75 172.75V155.5L25.5 128.25V146.5L28.25 148.5V134.5L40.25 141.432L68.5 157.75V169.75L71.75 172.75Z" fill="#D9D9D9"/>
<path d="M40.25 121.486L25.5 128.25L71.75 155.5L86.75 147.75L40.25 121.486Z" fill="#FEFAE0"/>
<path d="M86.75 164.25V147.75L71.75 155.5V172.75L86.75 164.25Z" fill="#D9D9D9"/>
<path d="M28.25 134.5V148.5L40.25 141.432L28.25 134.5Z" fill="#1E1E1E"/>
<path d="M25.5 38.75L1 60.75M25.5 38.75L36.5 45.0357M25.5 38.75V8.75M141 104.75L130.25 98.6071M141 104.75V78.8929M141 104.75L137.34 108.75M141 104.75V105.75V118.25M119.5 128.25L107.625 121.486M119.5 128.25V135.25C115.417 138.75 107.25 142.25 107.25 128.25M119.5 128.25L133.5 122.878M119.5 128.25L121.92 125.605M1 60.75L12.5 67.3006M1 60.75V67.3006C1 79.6268 8.66667 77.3733 12.5 74.7057M12.5 67.3006L36.5 45.0357M12.5 67.3006L25.5 74.7057M12.5 67.3006V74.7057M36.5 45.0357L48.5 51.8929M25.5 74.7057L48.5 51.8929M25.5 74.7057L36.5 80.9715M25.5 74.7057V80.9715M48.5 51.8929L59 57.8929M36.5 80.9715L59 57.8929M36.5 80.9715L48.5 87.807M36.5 80.9715V87.807M59 57.8929L71.75 65.1786M48.5 87.807L71.75 65.1786M48.5 87.807L59 93.788M48.5 87.807V93.788M71.75 65.1786L83.25 71.75M59 93.788L83.25 71.75M59 93.788L71.75 101.051M59 93.788V101.051M83.25 71.75L95.75 78.8929M71.75 101.051L95.75 78.8929M71.75 101.051L83.25 107.601M71.75 101.051V107.601M95.75 78.8929L107.25 85.4643M83.25 107.601L107.25 85.4643M83.25 107.601L95.75 114.722M83.25 107.601V114.722M107.25 85.4643L119.5 92.4643M95.75 114.722L119.5 92.4643M95.75 114.722L107.625 121.486M95.75 114.722V121.486M119.5 92.4643L130.25 98.6071M107.625 121.486L130.25 98.6071M107.625 121.486L107.25 128.25M141 78.8929L48.5 22.7178L25.5 8.75M141 78.8929L146.5 74.75M25.5 8.75L30 5L54.75 19.8181M204.75 69.25L88.5 1L54.75 19.8181M204.75 69.25L146.5 103.5V95.75M204.75 69.25V159.25L141 197.5M146.5 74.75V95.75M146.5 74.75L66.25 26.7033M54.75 19.8181L59.5932 22.7178M59.5932 22.7178L88.5 6.25M59.5932 22.7178L66.25 26.7033M88.5 6.25L194 69.25L187.5 72.8763M88.5 6.25V13.75M146.5 95.75L187.5 72.8763M66.25 26.7033L88.5 13.75M88.5 13.75L187.5 72.8763M141 197.5L86.75 164.25M141 197.5V120M150.75 114.75L197.5 87.807V125.605V125.941M150.75 114.75V124.25V128.25M150.75 114.75L197.5 125.941M107.25 128.25C106.256 128.739 105.341 129.122 104.5 129.409M95.75 121.486C95.5427 122.732 95.4882 124.219 95.75 125.605M95.75 121.486C93.1203 123.82 88.5924 126.158 85.75 123.012M83.25 114.722C80.1667 117.799 73.55 120.682 71.75 107.601M83.25 114.722C83.5012 118.985 84.4491 121.573 85.75 123.012M71.75 107.601C69.063 110.354 63.9537 113.162 60.9211 107.601M59 101.051C59.4271 103.964 60.0976 106.091 60.9211 107.601M59 101.051C57.1316 102.835 54.2659 104.585 52 103.726M48.5 93.788C44.5 97.1466 36.5 100.653 36.5 87.807M48.5 93.788C48.5 94.7772 48.5358 95.6791 48.6036 96.5M36.5 87.807C34.4731 88.6857 31.5858 89.4297 29.25 88.9519M25.5 80.9715C21.1667 83.5348 12.5 85.8703 12.5 74.7057M25.5 80.9715C25.2003 82.8401 25.2468 84.3144 25.5486 85.4643M29.25 88.9519C27.5273 88.5994 26.1046 87.5823 25.5486 85.4643M29.25 88.9519V101.051M95.75 125.605V142.5L67.5646 126.5M95.75 125.605C96.2007 127.991 97.5891 130.076 100.75 130.111M25.5486 85.4643L25.5 128.25M25.5 128.25L40.25 121.486L86.75 147.75M25.5 128.25L71.75 155.5M25.5 128.25V146.5L28.25 148.5M86.75 147.75V164.25M86.75 147.75L71.75 155.5M86.75 164.25L71.75 172.75M104.5 167.75L133.5 184.5V159.75M104.5 167.75L133.5 159.75M104.5 167.75V155.5M104.5 129.409C103.036 129.91 101.796 130.122 100.75 130.111M104.5 129.409V144.75M100.75 130.111V168.75L136.75 189.5L137.248 121.44M137.34 108.75L133.5 112.948M137.34 108.75L137.258 120M141 120L137.248 121.44M141 120V118.25M71.75 172.75V155.5M71.75 172.75L68.5 169.75V157.75L40.25 141.432M28.25 148.5V134.5L40.25 141.432M28.25 148.5L40.25 141.432M137.248 121.44L133.5 122.878M137.248 121.44L137.258 120M133.5 112.948V114.722V121.44M133.5 112.948L121.92 125.605M150.75 128.25L197.5 129.409M150.75 128.25V131.875M197.5 129.409V132.454M197.5 129.409V125.941M150.75 135.5V139.5V162L190.443 139.5L195.5 136.634M150.75 135.5L195.5 136.634M150.75 135.5V131.875M195.5 136.634L197.5 135.5V132.454M197.5 132.454L150.75 131.875M133.5 159.75V148.5M133.5 148.5L104.5 155.5M133.5 148.5V143.5M104.5 155.5V151.25M104.5 151.25L133.5 143.5M104.5 151.25V144.75M133.5 143.5V137.25M104.5 144.75L133.5 137.25M133.5 137.25V122.878M133.5 122.878V121.44M121.92 125.605L133.5 121.44M133.5 121.44L137.258 120M137.258 120L141 118.25M85.75 123.012L67.5646 126.5M67.5646 126.5L41.75 111.846M41.75 111.846L60.9211 107.601M41.75 111.846L33.75 107.305M52 103.726L33.75 107.305M52 103.726C50.3248 103.091 48.9776 101.03 48.6036 96.5M33.75 107.305L29.25 104.75V101.051M29.25 101.051L48.6036 96.5" stroke="#1E1E1E" stroke-width="0.5"/>
<path d="M169 154L160.689 200.875L183.01 216.339L193 168.32L169 154Z" fill="#48502A"/>
<path d="M182.5 226.75L187 224.5L192.185 199.375L196.75 177.25L204.011 206.875L206.125 215.5L209.125 213.625L198.25 169.375L195.25 167.125L194.769 169.375L184.505 217.375L182.5 226.75Z" fill="#F9E7B3"/>
<path d="M155.125 209.5L159.625 206.875L160.689 200.875L169 154L155.125 209.5Z" fill="#F9E7B3"/>
<path d="M194.769 169.375L195.25 167.125L193.375 166.005L168.25 151L168.166 151.375L154 208.75L155.125 209.5L169 154L193 168.32L183.01 216.339L181 226L182.5 226.75L184.505 217.375L194.769 169.375Z" fill="white"/>
<path d="M204.011 206.875L196.75 177.25L192.185 199.375L204.011 206.875Z" fill="#48502A"/>
<path d="M182.5 226.75L187 224.5L192.185 199.375M182.5 226.75L184.505 217.375L194.769 169.375L195.25 167.125M182.5 226.75L181 226L183.01 216.339M195.25 167.125L198.25 169.375L209.125 213.625L206.125 215.5L204.011 206.875M195.25 167.125L193.375 166.005L168.25 151L168.166 151.375L154 208.75L155.125 209.5M155.125 209.5L159.625 206.875L160.689 200.875M155.125 209.5L169 154M169 154L160.689 200.875M169 154L193 168.32L183.01 216.339M160.689 200.875L183.01 216.339M204.011 206.875L196.75 177.25L192.185 199.375M204.011 206.875L192.185 199.375" stroke="black" stroke-width="0.9"/>
<path d="M169.194 177.299C169.067 176.784 169.142 176.288 169.417 175.811C169.554 175.574 169.724 175.377 169.928 175.219C170.133 175.058 170.354 174.942 170.589 174.87C170.83 174.797 171.074 174.773 171.321 174.799C171.57 174.821 171.806 174.896 172.029 175.025C172.252 175.154 172.436 175.321 172.579 175.525C172.724 175.727 172.826 175.95 172.883 176.195C172.942 176.436 172.953 176.686 172.916 176.945C172.882 177.2 172.796 177.446 172.66 177.683C172.384 178.16 171.992 178.472 171.482 178.62C171.133 178.725 170.8 178.736 170.483 178.652C170.164 178.572 169.89 178.413 169.661 178.177C169.433 177.947 169.277 177.654 169.194 177.299ZM170.253 178.289C170.469 178.414 170.7 178.452 170.944 178.404C171.186 178.359 171.405 178.255 171.598 178.091C171.797 177.927 171.965 177.726 172.102 177.489C172.256 177.222 172.359 176.941 172.412 176.647C172.463 176.356 172.441 176.077 172.347 175.811C172.252 175.544 172.08 175.339 171.83 175.194C171.617 175.071 171.394 175.031 171.162 175.073C170.933 175.111 170.714 175.213 170.506 175.377C170.301 175.538 170.126 175.742 169.984 175.989C169.83 176.256 169.726 176.537 169.673 176.831C169.623 177.122 169.643 177.403 169.736 177.673C169.83 177.939 170.002 178.144 170.253 178.289ZM171.371 180.687C171.366 180.666 171.375 180.635 171.398 180.594C171.423 180.55 171.443 180.532 171.456 180.54C171.483 180.556 171.524 180.572 171.577 180.589C171.63 180.607 171.682 180.618 171.732 180.625C171.783 180.631 171.813 180.629 171.824 180.617C171.865 180.578 171.905 180.529 171.944 180.47C171.986 180.413 172.026 180.35 172.065 180.283L173.275 178.187C173.349 178.058 173.378 177.953 173.362 177.872C173.352 177.812 173.327 177.761 173.287 177.72C173.251 177.681 173.214 177.651 173.177 177.63C173.145 177.607 173.131 177.592 173.135 177.585C173.182 177.504 173.217 177.468 173.239 177.476C173.629 177.629 173.883 177.719 174.002 177.748L174.044 177.758C174.061 177.768 174.057 177.79 174.032 177.825C174.009 177.857 173.989 177.884 173.972 177.906L173.949 177.933C173.997 177.929 174.059 177.931 174.135 177.939C174.212 177.947 174.29 177.961 174.369 177.98C174.452 178 174.519 178.025 174.569 178.055C174.799 178.187 174.96 178.35 175.052 178.543C175.149 178.734 175.189 178.931 175.171 179.133C175.159 179.333 175.106 179.515 175.013 179.677C174.919 179.84 174.799 179.978 174.652 180.091C174.507 180.202 174.349 180.284 174.178 180.339C174.006 180.393 173.833 180.415 173.659 180.405C173.49 180.393 173.334 180.346 173.192 180.264C173.088 180.203 173.013 180.149 172.969 180.101C172.922 180.056 172.873 179.996 172.822 179.921C172.8 179.927 172.781 179.945 172.763 179.975L172.511 180.412C172.455 180.51 172.408 180.598 172.372 180.676C172.336 180.755 172.309 180.825 172.291 180.887C172.29 180.904 172.305 180.933 172.336 180.974C172.367 181.014 172.403 181.053 172.444 181.09C172.486 181.128 172.517 181.152 172.537 181.164C172.547 181.17 172.542 181.194 172.522 181.237C172.5 181.283 172.482 181.31 172.467 181.32L171.939 180.981L171.371 180.687ZM173.336 180.062C173.471 180.14 173.61 180.166 173.751 180.14C173.898 180.112 174.037 180.047 174.167 179.947C174.299 179.843 174.408 179.716 174.494 179.567C174.604 179.378 174.662 179.195 174.669 179.019C174.681 178.841 174.652 178.682 174.579 178.541C174.507 178.4 174.402 178.29 174.263 178.209C174.158 178.149 174.056 178.128 173.955 178.146C173.856 178.161 173.776 178.221 173.716 178.326L173.056 179.468C173.004 179.559 173.008 179.665 173.069 179.786C173.132 179.904 173.221 179.996 173.336 180.062ZM175.715 181.707C175.529 181.599 175.387 181.452 175.288 181.264C175.189 181.076 175.139 180.873 175.138 180.656C175.142 180.438 175.203 180.227 175.32 180.024C175.457 179.787 175.619 179.608 175.806 179.486C175.994 179.364 176.19 179.302 176.395 179.298C176.602 179.291 176.8 179.343 176.99 179.452C177.145 179.542 177.265 179.651 177.348 179.781C177.433 179.907 177.482 180.034 177.493 180.162C177.499 180.292 177.488 180.414 177.458 180.528C177.434 180.64 177.394 180.743 177.34 180.838C177.301 180.906 177.266 180.942 177.236 180.947C177.208 180.949 177.165 180.933 177.108 180.9L175.829 180.162C175.802 180.146 175.783 180.147 175.774 180.164C175.692 180.306 175.641 180.46 175.623 180.625C175.606 180.787 175.629 180.942 175.692 181.091C175.755 181.24 175.867 181.361 176.029 181.455C176.172 181.537 176.302 181.585 176.42 181.599C176.543 181.612 176.637 181.614 176.7 181.606L176.751 181.601C176.771 181.612 176.768 181.64 176.743 181.684C176.729 181.708 176.701 181.733 176.66 181.758C176.537 181.814 176.388 181.842 176.211 181.844C176.036 181.842 175.871 181.796 175.715 181.707ZM175.952 179.949L176.941 180.52C176.958 180.53 176.977 180.518 176.996 180.484C177.039 180.41 177.066 180.317 177.076 180.205C177.091 180.093 177.08 179.98 177.041 179.867C177.002 179.755 176.924 179.664 176.805 179.596C176.697 179.533 176.582 179.517 176.462 179.546C176.343 179.572 176.236 179.621 176.141 179.692C176.047 179.76 175.981 179.828 175.942 179.896C175.928 179.919 175.932 179.937 175.952 179.949ZM176.861 182.348C176.855 182.326 176.865 182.294 176.89 182.25C176.914 182.209 176.932 182.193 176.946 182.2C176.973 182.216 177.013 182.233 177.066 182.25C177.119 182.267 177.171 182.279 177.221 182.285C177.272 182.292 177.302 182.289 177.314 182.278C177.355 182.238 177.394 182.189 177.433 182.13C177.475 182.073 177.515 182.011 177.554 181.943L178.108 180.984C178.182 180.855 178.211 180.75 178.195 180.669C178.185 180.609 178.16 180.558 178.12 180.517C178.084 180.479 178.047 180.448 178.01 180.427C177.978 180.404 177.964 180.389 177.968 180.382C178.015 180.301 178.05 180.265 178.072 180.273C178.267 180.349 178.426 180.41 178.549 180.454C178.675 180.495 178.753 180.52 178.784 180.528L178.877 180.555C178.892 180.559 178.893 180.578 178.879 180.61C178.864 180.643 178.852 180.665 178.84 180.676C178.806 180.72 178.778 180.757 178.755 180.789C178.732 180.821 178.715 180.847 178.703 180.867C178.695 180.881 178.695 180.89 178.701 180.894C178.705 180.896 178.712 180.895 178.723 180.892C178.847 180.856 178.996 180.84 179.169 180.846C179.347 180.849 179.497 180.886 179.619 180.957C179.856 181.093 179.973 181.274 179.97 181.497C179.967 181.721 179.856 182.023 179.637 182.401L179.371 182.863C179.314 182.961 179.268 183.05 179.231 183.128C179.195 183.206 179.168 183.276 179.151 183.338C179.15 183.356 179.164 183.385 179.195 183.425C179.226 183.465 179.262 183.504 179.304 183.542C179.345 183.579 179.376 183.604 179.396 183.616C179.407 183.621 179.402 183.646 179.382 183.688C179.362 183.731 179.343 183.758 179.327 183.771L178.798 183.433L178.251 183.15C178.245 183.129 178.255 183.096 178.28 183.052C178.304 183.012 178.322 182.995 178.336 183.003C178.363 183.019 178.401 183.034 178.451 183.05C178.501 183.065 178.55 183.075 178.596 183.079C178.643 183.084 178.673 183.08 178.684 183.069C178.725 183.029 178.764 182.98 178.803 182.921C178.845 182.864 178.885 182.802 178.924 182.734L179.217 182.227C179.399 181.912 179.482 181.674 179.468 181.512C179.453 181.35 179.354 181.216 179.171 181.111C179.1 181.07 179.018 181.049 178.923 181.049C178.831 181.045 178.746 181.055 178.669 181.078C178.593 181.101 178.542 181.135 178.516 181.179L178.001 182.072C177.944 182.17 177.898 182.259 177.861 182.337C177.825 182.415 177.798 182.485 177.781 182.547C177.779 182.565 177.794 182.594 177.825 182.634C177.856 182.674 177.892 182.713 177.934 182.751C177.975 182.788 178.006 182.813 178.026 182.825C178.037 182.83 178.032 182.855 178.012 182.897C177.991 182.94 177.973 182.967 177.957 182.98L177.428 182.642L176.861 182.348ZM179.631 183.947C179.625 183.926 179.635 183.893 179.661 183.849C179.684 183.809 179.703 183.792 179.716 183.8C179.743 183.816 179.783 183.832 179.837 183.849C179.89 183.867 179.942 183.878 179.992 183.885C180.042 183.891 180.073 183.889 180.084 183.877C180.125 183.838 180.165 183.789 180.203 183.73C180.245 183.673 180.286 183.61 180.325 183.543L180.879 182.584C180.953 182.455 180.982 182.35 180.966 182.269C180.957 182.205 180.932 182.155 180.891 182.117C180.851 182.076 180.815 182.046 180.781 182.026C180.749 182.004 180.735 181.989 180.739 181.982C180.786 181.901 180.82 181.864 180.843 181.873C181.037 181.949 181.187 182.006 181.292 182.044C181.398 182.078 181.493 182.109 181.578 182.135L181.647 182.155C181.663 182.159 181.663 182.177 181.649 182.21C181.635 182.242 181.622 182.264 181.611 182.276C181.565 182.34 181.521 182.4 181.479 182.457C181.441 182.516 181.406 182.572 181.375 182.626L180.771 183.672C180.715 183.77 180.668 183.858 180.632 183.936C180.596 184.015 180.569 184.085 180.551 184.147C180.55 184.164 180.565 184.193 180.596 184.234C180.627 184.274 180.663 184.313 180.704 184.35C180.746 184.388 180.777 184.412 180.797 184.424C180.807 184.43 180.802 184.454 180.782 184.497C180.762 184.539 180.744 184.567 180.727 184.58L180.199 184.241L179.631 183.947ZM181.733 181.467C181.666 181.428 181.621 181.368 181.6 181.288C181.578 181.208 181.587 181.134 181.626 181.066C181.667 180.995 181.726 180.951 181.805 180.933C181.885 180.911 181.958 180.92 182.026 180.959C182.097 181 182.142 181.06 182.16 181.138C182.183 181.215 182.174 181.288 182.133 181.359C182.094 181.427 182.035 181.472 181.955 181.493C181.878 181.517 181.804 181.508 181.733 181.467ZM181.047 184.765C181.041 184.743 181.051 184.711 181.076 184.667C181.1 184.626 181.118 184.61 181.132 184.617C181.159 184.633 181.199 184.65 181.252 184.667C181.306 184.684 181.357 184.696 181.408 184.702C181.458 184.709 181.489 184.706 181.5 184.695C181.541 184.655 181.581 184.606 181.619 184.547C181.661 184.49 181.702 184.428 181.741 184.36L182.294 183.401C182.369 183.272 182.398 183.167 182.381 183.086C182.371 183.026 182.346 182.975 182.307 182.934C182.27 182.896 182.234 182.865 182.197 182.844C182.165 182.821 182.151 182.806 182.155 182.799C182.201 182.718 182.236 182.682 182.258 182.69C182.453 182.766 182.612 182.827 182.736 182.871C182.861 182.912 182.939 182.937 182.97 182.945L183.063 182.972C183.078 182.976 183.079 182.995 183.065 183.027C183.051 183.06 183.038 183.082 183.027 183.093C182.993 183.137 182.964 183.174 182.941 183.206C182.918 183.238 182.901 183.264 182.889 183.284C182.882 183.298 182.881 183.307 182.888 183.311C182.891 183.313 182.898 183.312 182.909 183.309C183.034 183.273 183.182 183.257 183.355 183.263C183.534 183.266 183.684 183.303 183.805 183.374C184.042 183.51 184.159 183.691 184.156 183.914C184.153 184.138 184.042 184.44 183.824 184.818L183.557 185.28C183.5 185.378 183.454 185.467 183.418 185.545C183.382 185.623 183.355 185.693 183.337 185.755C183.336 185.773 183.351 185.802 183.382 185.842C183.412 185.882 183.449 185.921 183.49 185.959C183.532 185.996 183.563 186.021 183.583 186.033C183.593 186.038 183.588 186.063 183.568 186.105C183.548 186.148 183.53 186.175 183.513 186.188L182.985 185.85L182.437 185.567C182.432 185.546 182.441 185.513 182.467 185.469C182.49 185.429 182.509 185.412 182.522 185.42C182.549 185.436 182.588 185.451 182.638 185.467C182.687 185.482 182.736 185.492 182.783 185.496C182.83 185.501 182.859 185.497 182.87 185.486C182.911 185.446 182.951 185.397 182.989 185.338C183.031 185.281 183.072 185.219 183.111 185.151L183.404 184.644C183.585 184.329 183.669 184.091 183.654 183.929C183.639 183.767 183.54 183.633 183.358 183.528C183.287 183.487 183.204 183.466 183.109 183.466C183.017 183.462 182.932 183.472 182.856 183.495C182.779 183.518 182.728 183.552 182.703 183.596L182.187 184.489C182.13 184.587 182.084 184.676 182.048 184.754C182.012 184.832 181.985 184.902 181.967 184.964C181.966 184.982 181.981 185.011 182.012 185.051C182.042 185.091 182.079 185.13 182.12 185.168C182.162 185.205 182.192 185.23 182.213 185.242C182.223 185.247 182.218 185.272 182.198 185.314C182.178 185.357 182.16 185.384 182.143 185.397L181.615 185.059L181.047 184.765ZM184.059 188.019C183.9 187.928 183.76 187.819 183.638 187.695C183.519 187.572 183.44 187.443 183.401 187.308C183.362 187.173 183.379 187.042 183.451 186.917C183.572 186.707 183.841 186.624 184.259 186.666C184.175 186.6 184.115 186.509 184.078 186.393C184.042 186.277 184.052 186.168 184.111 186.067C184.162 185.979 184.252 185.909 184.381 185.857C184.513 185.807 184.645 185.779 184.774 185.773C184.722 185.707 184.683 185.623 184.656 185.522C184.632 185.423 184.625 185.317 184.635 185.206C184.645 185.094 184.678 184.991 184.733 184.897C184.811 184.761 184.919 184.664 185.057 184.604C185.198 184.54 185.35 184.515 185.513 184.529C185.682 184.541 185.848 184.593 186.01 184.687C186.142 184.763 186.273 184.868 186.404 185.002C186.534 185.136 186.655 185.235 186.766 185.3L187.061 185.47C187.079 185.485 187.065 185.533 187.018 185.614C186.991 185.661 186.967 185.679 186.946 185.667L186.586 185.459C186.573 185.452 186.563 185.453 186.557 185.463L186.538 185.614C186.526 185.72 186.498 185.812 186.453 185.89C186.382 186.012 186.279 186.105 186.142 186.17C186.005 186.236 185.853 186.265 185.685 186.258C185.521 186.254 185.359 186.206 185.2 186.114C185.146 186.083 185.096 186.052 185.051 186.021C185.006 185.99 184.964 185.96 184.928 185.93C184.836 185.94 184.755 185.959 184.686 185.986C184.619 186.015 184.571 186.055 184.542 186.106C184.493 186.19 184.509 186.272 184.59 186.35C184.671 186.429 184.786 186.511 184.935 186.597C185.143 186.721 185.313 186.837 185.444 186.945C185.582 187.051 185.682 187.147 185.745 187.233C185.867 187.412 185.882 187.581 185.79 187.74C185.691 187.913 185.548 188.042 185.363 188.129C185.181 188.218 184.976 188.253 184.747 188.234C184.521 188.22 184.291 188.149 184.059 188.019ZM185.295 185.938C185.427 186.015 185.564 186.026 185.707 185.974C185.854 185.923 185.968 185.827 186.05 185.684C186.14 185.529 186.167 185.369 186.132 185.204C186.099 185.041 186.019 184.922 185.891 184.848C185.759 184.772 185.619 184.759 185.473 184.81C185.33 184.862 185.217 184.96 185.135 185.102C185.045 185.258 185.016 185.417 185.049 185.58C185.084 185.745 185.166 185.864 185.295 185.938ZM184.315 187.917C184.45 187.995 184.585 188.039 184.719 188.049C184.853 188.058 184.973 188.039 185.077 187.991C185.185 187.945 185.265 187.877 185.318 187.785C185.4 187.643 185.385 187.508 185.274 187.381C185.168 187.252 184.914 187.071 184.511 186.839C184.484 186.823 184.428 186.811 184.342 186.803C184.261 186.796 184.174 186.805 184.084 186.829C183.994 186.859 183.923 186.919 183.871 187.011C183.816 187.105 183.803 187.21 183.831 187.326C183.859 187.441 183.915 187.551 184 187.654C184.088 187.759 184.193 187.846 184.315 187.917ZM169.148 187.18C169.067 187.133 168.985 187.077 168.901 187.01C168.816 186.947 168.747 186.892 168.694 186.843C168.582 186.747 168.501 186.676 168.452 186.629C168.407 186.581 168.364 186.54 168.32 186.506C168.397 186.27 168.464 186.081 168.52 185.937C168.577 185.79 168.624 185.686 168.659 185.625C168.671 185.605 168.704 185.611 168.758 185.642C168.819 185.677 168.852 185.717 168.858 185.761C168.695 186.316 168.836 186.722 169.279 186.978C169.448 187.075 169.621 187.108 169.798 187.075C169.975 187.042 170.117 186.932 170.225 186.746C170.26 186.685 170.289 186.603 170.313 186.499C170.34 186.398 170.328 186.289 170.277 186.174C170.239 186.084 170.205 186.015 170.174 185.966C170.146 185.913 170.116 185.864 170.083 185.819C170.053 185.77 170.016 185.705 169.972 185.625L169.839 185.387C169.771 185.262 169.708 185.128 169.65 184.987C169.594 184.842 169.563 184.693 169.556 184.54C169.553 184.389 169.593 184.243 169.675 184.101C169.778 183.922 169.914 183.792 170.081 183.713C170.254 183.632 170.436 183.598 170.628 183.609C170.823 183.623 171.009 183.68 171.185 183.782C171.259 183.825 171.326 183.87 171.384 183.917C171.448 183.963 171.499 184.004 171.537 184.039C171.625 184.122 171.685 184.181 171.718 184.218C171.754 184.257 171.804 184.307 171.869 184.366C171.808 184.566 171.689 184.819 171.511 185.127C171.497 185.151 171.473 185.153 171.44 185.133C171.355 185.085 171.321 185.042 171.337 185.007C171.379 184.895 171.399 184.774 171.398 184.643C171.397 184.511 171.366 184.385 171.305 184.264C171.246 184.14 171.149 184.039 171.014 183.961C170.875 183.881 170.751 183.845 170.642 183.854C170.535 183.86 170.441 183.894 170.361 183.956C170.285 184.016 170.222 184.09 170.171 184.178C170.122 184.262 170.094 184.359 170.086 184.467C170.078 184.575 170.096 184.68 170.14 184.782C170.2 184.921 170.263 185.054 170.329 185.182C170.398 185.312 170.47 185.446 170.544 185.584C170.613 185.714 170.677 185.852 170.737 186C170.798 186.143 170.834 186.288 170.844 186.434C170.858 186.582 170.825 186.725 170.745 186.864C170.642 187.043 170.5 187.175 170.32 187.261C170.141 187.343 169.948 187.378 169.739 187.365C169.535 187.351 169.338 187.289 169.148 187.18ZM171.7 188.633C171.497 188.515 171.34 188.357 171.229 188.158C171.119 187.959 171.062 187.744 171.061 187.513C171.062 187.284 171.122 187.066 171.242 186.859C171.363 186.65 171.519 186.488 171.712 186.373C171.908 186.261 172.117 186.203 172.339 186.201C172.563 186.195 172.78 186.253 172.99 186.374C173.193 186.491 173.348 186.648 173.455 186.845C173.566 187.044 173.621 187.257 173.622 187.483C173.626 187.71 173.568 187.927 173.449 188.134C173.33 188.34 173.171 188.501 172.974 188.617C172.776 188.733 172.565 188.794 172.341 188.8C172.12 188.807 171.906 188.752 171.7 188.633ZM171.859 188.461C171.981 188.531 172.11 188.554 172.247 188.529C172.383 188.504 172.514 188.44 172.641 188.337C172.772 188.237 172.882 188.109 172.971 187.953C173.077 187.77 173.139 187.585 173.157 187.397C173.177 187.206 173.157 187.034 173.096 186.881C173.041 186.728 172.949 186.614 172.82 186.539C172.702 186.471 172.573 186.448 172.433 186.472C172.299 186.493 172.169 186.554 172.044 186.653C171.921 186.749 171.814 186.876 171.722 187.035C171.616 187.218 171.551 187.406 171.525 187.598C171.505 187.79 171.523 187.962 171.578 188.116C171.637 188.272 171.731 188.387 171.859 188.461ZM174.287 190.127C174.084 190.01 173.928 189.851 173.817 189.652C173.707 189.453 173.65 189.238 173.649 189.007C173.65 188.778 173.71 188.56 173.829 188.354C173.951 188.144 174.107 187.982 174.3 187.867C174.495 187.755 174.705 187.697 174.927 187.695C175.151 187.689 175.368 187.747 175.578 187.868C175.781 187.985 175.936 188.142 176.043 188.339C176.154 188.539 176.209 188.751 176.21 188.977C176.214 189.205 176.156 189.422 176.037 189.628C175.918 189.834 175.759 189.995 175.562 190.111C175.364 190.227 175.153 190.288 174.928 190.294C174.707 190.302 174.494 190.246 174.287 190.127ZM174.447 189.955C174.569 190.026 174.698 190.048 174.834 190.023C174.971 189.998 175.102 189.934 175.229 189.831C175.36 189.731 175.47 189.603 175.559 189.447C175.665 189.264 175.727 189.079 175.745 188.891C175.765 188.7 175.745 188.528 175.684 188.376C175.629 188.222 175.537 188.108 175.408 188.034C175.29 187.965 175.161 187.943 175.021 187.966C174.887 187.987 174.757 188.048 174.632 188.147C174.509 188.243 174.402 188.37 174.31 188.529C174.204 188.712 174.139 188.9 174.113 189.092C174.093 189.284 174.111 189.456 174.166 189.61C174.225 189.766 174.319 189.881 174.447 189.955ZM175.756 190.947C175.75 190.926 175.76 190.893 175.785 190.849C175.808 190.809 175.827 190.792 175.84 190.8C175.868 190.816 175.908 190.832 175.961 190.849C176.014 190.867 176.066 190.878 176.116 190.885C176.167 190.891 176.197 190.889 176.209 190.877C176.249 190.838 176.289 190.789 176.328 190.73C176.37 190.673 176.41 190.61 176.449 190.543L177.003 189.584C177.077 189.455 177.106 189.35 177.09 189.269C177.08 189.208 177.055 189.158 177.015 189.117C176.979 189.078 176.942 189.048 176.905 189.026C176.873 189.003 176.859 188.989 176.863 188.982C176.91 188.901 176.945 188.864 176.967 188.873C177.162 188.949 177.321 189.009 177.444 189.054C177.57 189.094 177.648 189.119 177.679 189.128L177.772 189.155C177.787 189.159 177.788 189.177 177.774 189.21C177.759 189.242 177.747 189.264 177.735 189.276C177.701 189.319 177.673 189.357 177.65 189.389C177.627 189.421 177.61 189.447 177.598 189.467C177.59 189.481 177.59 189.489 177.596 189.493C177.6 189.495 177.607 189.495 177.617 189.492C177.742 189.456 177.891 189.44 178.064 189.445C178.242 189.449 178.392 189.486 178.514 189.556C178.751 189.693 178.868 189.873 178.865 190.097C178.862 190.321 178.751 190.622 178.532 191.001L178.266 191.463C178.209 191.561 178.163 191.649 178.126 191.727C178.09 191.806 178.063 191.876 178.046 191.938C178.044 191.955 178.059 191.984 178.09 192.025C178.121 192.065 178.157 192.104 178.199 192.141C178.24 192.179 178.271 192.203 178.291 192.215C178.302 192.221 178.297 192.245 178.277 192.288C178.256 192.33 178.238 192.358 178.222 192.371L177.693 192.032L177.146 191.75C177.14 191.729 177.15 191.696 177.175 191.652C177.199 191.611 177.217 191.595 177.231 191.603C177.258 191.618 177.296 191.634 177.346 191.649C177.396 191.664 177.444 191.674 177.491 191.679C177.538 191.683 177.567 191.68 177.579 191.668C177.62 191.629 177.659 191.58 177.698 191.521C177.74 191.464 177.78 191.401 177.819 191.334L178.112 190.826C178.294 190.512 178.377 190.273 178.363 190.111C178.348 189.95 178.249 189.816 178.066 189.71C177.995 189.669 177.913 189.649 177.818 189.648C177.726 189.644 177.641 189.654 177.564 189.678C177.488 189.701 177.437 189.735 177.411 189.779L176.896 190.672C176.839 190.77 176.793 190.858 176.756 190.936C176.72 191.015 176.693 191.085 176.675 191.147C176.674 191.164 176.689 191.193 176.72 191.234C176.751 191.274 176.787 191.313 176.829 191.35C176.87 191.388 176.901 191.412 176.921 191.424C176.931 191.43 176.927 191.454 176.906 191.497C176.886 191.539 176.868 191.567 176.852 191.58L176.323 191.241L175.756 190.947Z" fill="white"/>
<path d="M65.9903 55.6713L55.2499 49.4703L55.6099 48.8468C55.9588 49.0344 56.2574 49.1652 56.5057 49.2393C56.7539 49.3133 56.9712 49.321 57.1575 49.2623C57.3438 49.2036 57.5237 49.0719 57.6973 48.8673C57.8709 48.6626 58.0627 48.3784 58.2727 48.0147L62.4307 40.8128C62.6407 40.4491 62.7879 40.1461 62.8723 39.9039C62.9731 39.6573 63.0076 39.4416 62.9757 39.2569C62.9497 39.0618 62.8501 38.8864 62.6766 38.7309C62.5195 38.5709 62.2911 38.3905 61.9914 38.1898L62.3514 37.5662L67.7294 40.6712L67.3694 41.2948C67.01 41.1012 66.7062 40.9673 66.458 40.8933C66.2202 40.8253 66.0051 40.8258 65.8128 40.8949C65.6205 40.964 65.4345 41.106 65.2549 41.3211C65.0858 41.5421 64.8872 41.8501 64.6592 42.245L60.8882 48.7765C60.6362 49.213 60.4707 49.5955 60.3919 49.9241C60.3294 50.2483 60.3623 50.5514 60.4905 50.8333C60.6248 51.1047 60.8558 51.3767 61.1835 51.649C61.5172 51.911 61.9543 52.198 62.4947 52.51C63.0974 52.858 63.6225 53.1126 64.0698 53.2738C64.5171 53.4351 64.9328 53.495 65.317 53.4535C65.7176 53.4077 66.1 53.2613 66.4643 53.0144C66.8286 52.7674 67.2269 52.4015 67.6592 51.9168L68.2827 52.2768L65.9903 55.6713ZM71.954 55.7058C71.714 56.1215 71.5376 56.463 71.4247 56.7304C71.3119 56.9978 71.2633 57.2261 71.2788 57.4152C71.2943 57.6043 71.3754 57.7758 71.5221 57.9298C71.6748 58.0734 71.8988 58.2373 72.1942 58.4217L71.8342 59.0453L66.9238 56.2103L67.2838 55.5867C67.5808 55.7443 67.8326 55.8482 68.0393 55.8982C68.2624 55.9439 68.4567 55.9313 68.6222 55.8606C68.8041 55.7855 68.9767 55.6427 69.1398 55.432C69.3194 55.217 69.5142 54.9276 69.7242 54.5639L70.8312 52.6465C71.1792 52.0438 71.4538 51.5441 71.655 51.1476C71.8622 50.7407 71.9922 50.4555 72.0451 50.292C72.1431 50.0022 72.1226 49.7617 71.9835 49.5706C71.8549 49.3854 71.5515 49.1549 71.0735 48.8789L71.3795 48.3489L75.338 49.8445L71.954 55.7058ZM74.9545 45.2168C75.1525 44.8738 75.4318 44.654 75.7924 44.5574C76.1694 44.4564 76.5242 44.5019 76.8568 44.6939C77.1997 44.8919 77.4165 45.1764 77.5072 45.5474C77.6142 45.914 77.5687 46.2688 77.3707 46.6118C77.1787 46.9443 76.8942 47.1611 76.5172 47.2621C76.1565 47.3588 75.8047 47.3081 75.4618 47.1101C75.1292 46.9181 74.9094 46.6388 74.8024 46.2721C74.7118 45.9011 74.7625 45.5493 74.9545 45.2168ZM77.5827 57.8124C77.3607 58.1969 77.2057 58.5854 77.1176 58.978C77.0459 59.3661 77.0346 59.7337 77.0836 60.0807C77.1327 60.4278 77.2481 60.7438 77.43 61.0289C77.6118 61.314 77.8585 61.5466 78.1703 61.7266C78.7939 62.0866 79.4317 62.0738 80.0839 61.6882C80.736 61.3026 81.3831 60.5539 82.0251 59.4419C82.6491 58.3611 82.962 57.4471 82.9639 56.6999C82.9821 55.9483 82.6742 55.3895 82.0403 55.0235C81.6662 54.8075 81.2581 54.7105 80.8159 54.7323C80.3901 54.7498 79.9839 54.8894 79.5972 55.1511C79.0702 55.5119 78.5877 56.0716 78.1497 56.8303L77.5827 57.8124ZM79.7295 54.022L79.7919 54.058C80.2901 53.819 80.8122 53.7187 81.3583 53.7568C81.9104 53.7846 82.4566 53.9545 82.997 54.2665C83.5478 54.5845 83.991 54.9928 84.3267 55.4914C84.6787 55.9856 84.9152 56.524 85.0362 57.1065C85.1675 57.6951 85.1819 58.3061 85.0794 58.9397C84.9768 59.5734 84.7546 60.1863 84.4126 60.7787C84.0526 61.4022 83.6104 61.916 83.0862 62.32C82.5783 62.7196 82.0264 63.0037 81.4302 63.1722C80.8445 63.3467 80.2392 63.3991 79.6144 63.3293C79 63.2656 78.4173 63.0747 77.8666 62.7567C77.295 62.4267 76.8176 62.0056 76.4344 61.4933C76.0675 60.9767 75.8384 60.4495 75.747 59.9118L73.9593 60.2722L73.4293 59.9662L78.7843 50.6911C79.3483 49.7142 79.6678 49.0049 79.7427 48.5632C79.7535 48.4724 79.7531 48.3891 79.7415 48.3131C79.73 48.2372 79.6916 48.1596 79.6265 48.0804C79.5777 47.9968 79.4918 47.9057 79.3687 47.8069C79.2516 47.6977 79.0929 47.5645 78.8927 47.4074L79.1987 46.8773L83.0505 48.2698L79.7295 54.022ZM88.0251 65.1715C87.7911 65.5768 87.6206 65.9079 87.5138 66.165C87.4234 66.4176 87.3993 66.6393 87.4416 66.83C87.484 67.0207 87.6022 67.1998 87.7965 67.3674C87.9967 67.5246 88.2787 67.7081 88.6424 67.9181L88.2824 68.5417L83.0759 65.5357L83.4359 64.9121C83.7597 65.0714 84.0271 65.1842 84.2381 65.2506C84.4492 65.317 84.6375 65.3149 84.803 65.2442C84.9686 65.1735 85.1277 65.0298 85.2805 64.8132C85.4497 64.5922 85.6483 64.2842 85.8763 63.8893L86.9743 61.9875C87.3463 61.3432 87.6277 60.8198 87.8185 60.4172C88.0093 60.0147 88.1128 59.6796 88.1288 59.4117C88.1449 59.1439 88.0722 58.9218 87.9108 58.7454C87.7657 58.5647 87.5373 58.3843 87.2255 58.2043L87.5405 57.6587L90.9912 58.8819L90.2056 60.8186L90.268 60.8546C90.8666 60.4658 91.4875 60.2423 92.1308 60.1842C92.774 60.126 93.3503 60.2439 93.8595 60.5379C94.2544 60.7659 94.5196 61.0506 94.655 61.3921C94.7904 61.7336 94.7711 62.055 94.5971 62.3563C94.4051 62.6889 94.1444 62.9125 93.8149 63.0271C93.4959 63.1478 93.1701 63.1121 92.8375 62.9201C92.6816 62.8301 92.5593 62.7179 92.4706 62.5835C92.3819 62.4492 92.3066 62.3156 92.2447 62.1829C92.1991 62.0457 92.1424 61.916 92.0745 61.7936C92.023 61.6669 91.9452 61.5735 91.8413 61.5135C91.6439 61.3995 91.3818 61.4214 91.0551 61.5792C90.7285 61.737 90.382 62.0012 90.0156 62.3717C89.7525 62.6354 89.481 62.9498 89.201 63.3147C88.927 63.6692 88.6791 64.0387 88.4571 64.4232L88.0251 65.1715ZM99.5354 73.1056C97.9717 73.6301 96.4832 73.4843 95.0699 72.6683C94.4255 72.2963 93.8954 71.8585 93.4794 71.3551C93.0798 70.8472 92.7979 70.3034 92.6338 69.7237C92.4756 69.1336 92.4397 68.5239 92.5258 67.8947C92.612 67.2655 92.835 66.6391 93.195 66.0155C93.567 65.3712 94.0152 64.8471 94.5394 64.4431C95.0696 64.0287 95.6432 63.7432 96.2601 63.5867C96.8934 63.4258 97.5433 63.3922 98.2097 63.486C98.8865 63.5857 99.5522 63.8246 100.207 64.2026C101.309 64.8386 101.995 65.6298 102.266 66.5761C102.537 67.5225 102.364 68.5309 101.746 69.6013C101.65 69.7676 101.564 69.8565 101.488 69.8681C101.418 69.8692 101.263 69.8008 101.024 69.6628L96.0048 66.7648C95.9093 66.8344 95.7895 66.9938 95.6455 67.2433C95.0575 68.2617 94.8107 69.1931 94.9052 70.0375C95.0101 70.8878 95.4418 71.532 96.2005 71.97C96.6369 72.222 97.1252 72.3723 97.6653 72.4208C98.2158 72.4754 98.7987 72.4378 99.414 72.308L99.5354 73.1056ZM98.8783 67.2599C99.294 67.4999 99.571 67.6321 99.7093 67.6565C99.864 67.6766 99.9924 67.5982 100.094 67.4216C100.358 66.9643 100.444 66.5152 100.353 66.0742C100.261 65.6332 100.017 65.2987 99.6226 65.0707C99.1757 64.8127 98.6676 64.7688 98.0983 64.9389C97.5453 65.1046 97.0519 65.4433 96.618 65.9549L98.8783 67.2599ZM107.327 73.6133C106.226 73.5042 105.353 73.4921 104.708 73.5771C104.08 73.6576 103.66 73.8798 103.45 74.2435C103.276 74.5449 103.221 74.8319 103.286 75.1046C103.35 75.3773 103.507 75.5856 103.756 75.7296C104.006 75.8736 104.263 75.967 104.53 76.0099C104.802 76.0424 105.058 76.0308 105.298 75.9753C105.538 75.9199 105.756 75.8174 105.953 75.6679C106.167 75.5141 106.34 75.3228 106.472 75.0942L107.327 73.6133ZM107.804 72.7871L108.182 72.1324C108.53 71.5297 108.673 71.0302 108.61 70.634C108.565 70.2334 108.318 69.9041 107.871 69.6461C107.57 69.4721 107.293 69.4232 107.041 69.4995C106.796 69.5654 106.497 69.7464 106.146 70.0425C105.902 70.2483 105.65 70.373 105.39 70.4165C105.139 70.466 104.864 70.4037 104.562 70.2297C104.271 70.0617 104.099 69.8444 104.045 69.5777C103.991 69.311 104.057 69.0166 104.243 68.6945C104.531 68.1956 105.029 67.9567 105.738 67.9777C106.456 68.0047 107.367 68.3363 108.468 68.9723C109.632 69.6443 110.341 70.3373 110.593 71.0514C110.852 71.7551 110.697 72.6006 110.127 73.5878L108.156 77.0017C107.646 77.885 107.567 78.4287 107.921 78.6327C108.118 78.7467 108.339 78.7842 108.583 78.7451L108.556 79.3321C108.261 79.5079 107.912 79.5838 107.51 79.5597C107.125 79.5312 106.74 79.4059 106.355 79.1839C105.877 78.9079 105.598 78.5524 105.516 78.1174C105.435 77.6824 105.547 77.1999 105.853 76.6699L105.775 76.6249C105.162 76.9913 104.535 77.1768 103.895 77.1814C103.255 77.186 102.628 77.0113 102.015 76.6573C101.36 76.2793 100.941 75.7945 100.756 75.2027C100.577 74.6006 100.658 74.0034 101 73.411C101.264 72.9537 101.713 72.6446 102.346 72.4837C102.986 72.3124 103.889 72.3075 105.057 72.469L107.804 72.7871Z" fill="black"/>
</svg>
